<svg width="413" height="202" viewBox="0 0 413 202" fill="none" xmlns="http://www.w3.org/2000/svg">
<g filter="url(#filter0_d_67_1529)">
<path d="M5.5 155.62C44.3306 196.73 65.3635 197.283 103 155.62C119.4 137.62 134.833 146.453 140.5 153.12L149 163.12C158.043 174.9 162.938 175.009 171 164.12L197.5 126.12C224.021 94.6735 238.335 93.0105 262.5 128.62L282.5 153.12C296.634 167.787 303.227 169.074 311.5 153.12L325 134.12C337.257 117.062 343.929 113.808 355 134.12L382 178.62C392.35 196.075 398.149 200.645 408.5 178.62V45.12C408.552 43.8947 408.537 42.6896 408.46 41.506C407.359 24.5305 393.667 11.9825 386.5 7.62C379.312 2.44473 371.177 0.576081 365.437 0.120056C363.191 -0.0583504 361.312 -0.0205478 360 0.120056H48C47.8328 0.138239 47.6661 0.157089 47.5 0.176599C26.9939 2.58516 15.0587 15.0429 12 21.6201L8.5 28.1201L6 35.6201L4 43V62.1201V154.12L5.5 155.62Z" fill="#D0E9E9"/>
<path d="M8.5 28.1201L12 21.6201C15.0587 15.0429 26.9939 2.58516 47.5 0.176599L4 0.120056V43L6 35.6201L8.5 28.1201Z" fill="#D0E9E9"/>
<path d="M386.5 7.62C393.667 11.9825 407.359 24.5305 408.46 41.506L408 0.120056H365.437C371.177 0.576081 379.312 2.44473 386.5 7.62Z" fill="#D0E9E9"/>
</g>
<defs>
<filter id="filter0_d_67_1529" x="0" y="0" width="412.53" height="201.474" filterUnits="userSpaceOnUse" color-interpolation-filters="sRGB">
<feFlood flood-opacity="0" result="BackgroundImageFix"/>
<feColorMatrix in="SourceAlpha" type="matrix" values="0 0 0 0 0 0 0 0 0 0 0 0 0 0 0 0 0 0 127 0" result="hardAlpha"/>
<feOffset dy="4"/>
<feGaussianBlur stdDeviation="2"/>
<feComposite in2="hardAlpha" operator="out"/>
<feColorMatrix type="matrix" values="0 0 0 0 0 0 0 0 0 0 0 0 0 0 0 0 0 0 0.12 0"/>
<feBlend mode="normal" in2="BackgroundImageFix" result="effect1_dropShadow_67_1529"/>
<feBlend mode="normal" in="SourceGraphic" in2="effect1_dropShadow_67_1529" result="shape"/>
</filter>
</defs>
</svg>
