<svg xmlns="http://www.w3.org/2000/svg" width="413" height="202" viewBox="0 0 413 202" fill="none">
    <g filter="url(#filter0_d_43_3370)">
        <path d="M5.5 155.62C44.3306 196.73 65.3635 197.283 103 155.62C119.4 137.62 134.833 146.453 140.5 153.12L149 163.12C158.043 174.9 162.938 175.009 171 164.12L197.5 126.12C224.021 94.6735 238.335 93.0105 262.5 128.62L282.5 153.12C296.634 167.787 303.227 169.074 311.5 153.12L325 134.12C337.257 117.062 343.929 113.808 355 134.12L382 178.62C392.35 196.075 398.149 200.645 408.5 178.62V45.12C409.3 26.32 394.167 12.2867 386.5 7.62C376.5 0.420044 364.667 -0.379944 360 0.120056H48C27.1878 2.38296 15.0835 14.9896 12 21.6201L8.5 28.1201L6 35.6201L4.5 43.1201L4 62.1201V154.12L5.5 155.62Z" fill="#D0E9E9"/>
    </g>
    <defs>
        <filter id="filter0_d_43_3370" x="0" y="1.52588e-05" width="412.53" height="201.474" filterUnits="userSpaceOnUse" color-interpolation-filters="sRGB">
            <feFlood flood-opacity="0" result="BackgroundImageFix"/>
            <feColorMatrix in="SourceAlpha" type="matrix" values="0 0 0 0 0 0 0 0 0 0 0 0 0 0 0 0 0 0 127 0" result="hardAlpha"/>
            <feOffset dy="4"/>
            <feGaussianBlur stdDeviation="2"/>
            <feComposite in2="hardAlpha" operator="out"/>
            <feColorMatrix type="matrix" values="0 0 0 0 0 0 0 0 0 0 0 0 0 0 0 0 0 0 0.12 0"/>
            <feBlend mode="normal" in2="BackgroundImageFix" result="effect1_dropShadow_43_3370"/>
            <feBlend mode="normal" in="SourceGraphic" in2="effect1_dropShadow_43_3370" result="shape"/>
        </filter>
    </defs>
</svg>
