<svg width="416" height="181" viewBox="0 0 416 181" fill="none" xmlns="http://www.w3.org/2000/svg">
<g filter="url(#filter0_d_197_1591)">
<path d="M5 1V118.5C33.3035 144.383 70 167 158 170.5C246 174 258.5 170.5 258.5 170.5C326.84 171.562 411 125.5 411 118.5C411 111.5 411 1 411 1H5Z" fill="#D0E9E9"/>
<path d="M5 1V118.5C33.3035 144.383 70 167 158 170.5C246 174 258.5 170.5 258.5 170.5C326.84 171.562 411 125.5 411 118.5C411 111.5 411 1 411 1H5Z" stroke="#D0E9E9"/>
</g>
<defs>
<filter id="filter0_d_197_1591" x="0.5" y="0.5" width="415" height="180.056" filterUnits="userSpaceOnUse" color-interpolation-filters="sRGB">
<feFlood flood-opacity="0" result="BackgroundImageFix"/>
<feColorMatrix in="SourceAlpha" type="matrix" values="0 0 0 0 0 0 0 0 0 0 0 0 0 0 0 0 0 0 127 0" result="hardAlpha"/>
<feOffset dy="4"/>
<feGaussianBlur stdDeviation="2"/>
<feComposite in2="hardAlpha" operator="out"/>
<feColorMatrix type="matrix" values="0 0 0 0 0 0 0 0 0 0 0 0 0 0 0 0 0 0 0.25 0"/>
<feBlend mode="normal" in2="BackgroundImageFix" result="effect1_dropShadow_197_1591"/>
<feBlend mode="normal" in="SourceGraphic" in2="effect1_dropShadow_197_1591" result="shape"/>
</filter>
</defs>
</svg>
