<svg width="151" viewBox="0 0 151 151" fill="none" xmlns="http://www.w3.org/2000/svg">
<path d="M75.741 2.00004C175.791 1.90901 172.319 148.449 75.741 149.5C-20.8367 150.551 -24.3088 2.09107 75.741 2.00004Z" stroke="black" stroke-width="3"/>
<path d="M31 121H33.0455" stroke="black" stroke-width="2"/>
<path d="M36.1133 121H114.352" stroke="black" stroke-width="2"/>
<path d="M117.42 121H120.999" stroke="black" stroke-width="2"/>
<path d="M96.9659 121V106M96.9659 106H111.795V101.862M96.9659 106H91.8523M91.8523 106V121M91.8523 106H77.0227V98.7586C77.1613 96.3168 77.6618 94.9552 79.0682 92.5517C82.2716 86.9811 82.1541 84.353 82.1364 79.6207C82.2606 69.7281 79.7869 64.7881 76 55.8276V52.7241C76.4029 48.8081 78.1838 48.0807 81.625 47.0345C87.226 46.6292 88.7052 44.2763 90.3182 38.7586H91.8523M96.9659 38.7586H98.5C100.014 43.2901 101.02 45.6687 105.659 47.0345C110.418 48.0404 112.109 49.16 112.307 52.7241V55.8276C108.552 64.755 107.065 69.9257 106.17 79.6207C106.45 84.4501 106.816 87.1989 109.75 92.5517C111.019 94.4586 111.365 95.6183 111.795 97.7241M96.9659 38.7586V32.5517H91.8523V38.7586M96.9659 38.7586H91.8523M67.8182 121V118.414C67.8373 117.092 67.4201 116.827 66.2841 116.862H58.1023M42.25 121V118.414C42.3289 117.156 42.6979 116.846 43.7841 116.862H51.9659M58.1023 116.862V84.2759M58.1023 116.862H51.9659M58.1023 84.2759H51.9659M58.1023 84.2759H67.8182L63.2159 62.5517C62.5082 58.7158 62.5564 56.5606 63.2159 52.7241C64.0514 48.304 64.8137 45.9701 66.7955 42.3793C67.5059 38.6437 66.6572 37.5804 63.2159 37.2069C59.847 35.7271 59.0517 34.3002 59.125 31H51.4545C51.1742 35.1252 50.2247 36.7237 45.8295 37.2069C43.4218 38.2869 42.9476 39.3875 43.7841 42.3793C45.7358 46.0415 46.4334 48.3622 47.3636 52.7241C48.1436 56.5657 48.1832 58.7105 47.3636 62.5517L42.7614 84.2759H51.9659M51.9659 84.2759V91.5172M51.9659 116.862V94.6207" stroke="black" stroke-width="2"/>
</svg>
