<svg width="151" height="151" viewBox="0 0 151 151" fill="none" xmlns="http://www.w3.org/2000/svg">
<path d="M75.741 2.00004C175.791 1.90901 172.319 148.449 75.741 149.5C-20.8367 150.551 -24.3088 2.09107 75.741 2.00004Z" stroke="black" stroke-width="3"/>
<path d="M50.207 113C50.207 113 109.69 113 113.31 113C116.931 113 119 110.736 119 106.774C119 102.811 119 52.434 119 47.3396C119 42.2453 115.897 39.4151 111.759 39.4151H107.103M61.0691 39.4151H98.8276M98.8276 39.4151V26.9623H102.966M98.8276 39.4151H107.103M107.103 39.4151V26.9623H102.966M102.966 26.9623V23M109.69 50.7358H87.9656M81.7587 50.7358H77.1035M55.8966 39.4151H47.6208M47.6208 39.4151V33.7547M47.6208 39.4151H45.0346C39.9401 40.2946 38.2777 42.1849 36.7587 47.9057L34.6898 71.1132C34.6772 74.6545 35.4893 76.2506 39.3449 77.9057H42.4483M42.4483 77.9057V81.8679C42.4607 83.3917 42.7265 83.9752 44 84.1321H47.1034M42.4483 77.9057H52.2758M52.2758 77.9057V81.8679C52.2513 83.3523 51.9775 83.916 50.7241 84.1321H47.1034M52.2758 77.9057H54.3448C57.4856 77.4691 58.7259 76.1615 60.0344 72.2453L61.0691 67.717C61.5276 64.0741 62.6348 63.0892 65.7241 62.6226H86.931C89.8616 62.9857 90.7696 63.9748 91.0689 67.1509V89.7925C90.796 93.2526 90.0492 94.4403 87.4482 94.8868H82.2758M77.6206 94.8868H56.4138M47.1034 94.8868V84.1321M47.1034 94.8868H38.8276M47.1034 94.8868H56.4138M45.0345 113C45.0345 113 38.3103 113 34.1724 113C30.0345 113 29 110.736 29 106.774C29 102.811 29 94.8868 29 94.8868H38.8276M38.8276 94.8868V99.9811H56.4138V94.8868M105.552 73.9434C113.31 73.9434 113.31 62.0566 105.552 62.0566C97.7931 62.0566 97.7931 73.9434 105.552 73.9434Z" stroke="black" stroke-width="2"/>
</svg>
