<svg width="151" height="151" viewBox="0 0 151 151" fill="none" xmlns="http://www.w3.org/2000/svg">
<path d="M75.741 2.00004C175.791 1.90901 172.319 148.449 75.741 149.5C-20.8367 150.551 -24.3088 2.09107 75.741 2.00004Z" stroke="black" stroke-width="3"/>
<path d="M96.4068 63.6774C83.3788 68.3302 76.7932 72.471 68.6743 87.4839M68.6743 87.4839C87.4987 91.3165 96.5836 91.7107 105.302 83.4194C114.408 68.799 117.997 60.4679 118.383 45.0968C110.851 47.4197 106.636 49.0515 99.0227 47.4194C93.6421 45.7317 90.5819 45.4689 84.8952 47.4194C83.2262 48.3802 81.6928 49.3387 80.2902 50.3226M68.6743 87.4839C68.3597 84.0789 68.1785 80.9975 68.1385 78.1935M68.1385 78.1935C52.9061 78.4606 47.8122 74.1584 40.9411 63.6774M68.1385 78.1935C68.0315 70.6983 68.9334 65.1855 70.9951 60.7742M70.9951 60.7742C64.6549 55.0307 60.928 52.8597 54.0225 50.3226M70.9951 60.7742C72.977 56.5334 76.0308 53.3104 80.2902 50.3226M36.7551 54.3871C33.4246 44.575 32.7599 39.2649 33.0923 30C43.2543 33.6182 49.2881 34.5831 61.8714 34.6452C72.4348 36.2218 75.2129 41.3495 80.2902 50.3226" stroke="black" stroke-width="2"/>
<path d="M31.5234 120H92.7444" stroke="black" stroke-width="2"/>
<path d="M101.117 120H121.001" stroke="black" stroke-width="2"/>
<path d="M31 102H120.477" stroke="black" stroke-width="2"/>
</svg>
