<svg width="151" height="151" viewBox="0 0 151 151" fill="none" xmlns="http://www.w3.org/2000/svg">
<path d="M75.741 2.00004C175.791 1.90901 172.319 148.449 75.741 149.5C-20.8367 150.551 -24.3088 2.09107 75.741 2.00004Z" stroke="black" stroke-width="3"/>
<path d="M53.6369 89.926H28.5801" stroke="black" stroke-width="2"/>
<path d="M45.4551 53.1852V98.8148L80.2278 116M45.4551 53.1852L79.7164 36L97.3585 44.2963M45.4551 53.1852L63.3528 62.0305M80.2278 70.3704V116M80.2278 70.3704L115.001 52.5926M80.2278 70.3704L63.3528 62.0305M80.2278 116L115.001 98.8148V52.5926M115.001 52.5926L97.3585 44.2963M63.3528 62.0305L97.3585 44.2963" stroke="black" stroke-width="2"/>
<path d="M50.0568 69.7778H25" stroke="black" stroke-width="2"/>
<path d="M62.3303 79.8518H37.2734" stroke="black" stroke-width="2"/>
<path d="M86.363 106.519C88.9197 106.519 88.9199 101.778 86.363 101.778C83.8061 101.778 83.8062 106.519 86.363 106.519Z" fill="black" stroke="black" stroke-width="2"/>
<path d="M93.3942 103.555C95.951 103.555 95.9511 98.8147 93.3942 98.8147C90.8374 98.8147 90.8375 103.555 93.3942 103.555Z" fill="black" stroke="black" stroke-width="2"/>
</svg>
