<svg width="151" height="151" viewBox="0 0 151 151" fill="none" xmlns="http://www.w3.org/2000/svg">
<path d="M75.741 2.00004C175.791 1.90901 172.319 148.449 75.741 149.5C-20.8367 150.551 -24.3088 2.09107 75.741 2.00004Z" stroke="black" stroke-width="3"/>
<path d="M62.9746 109.308H112.545V93.4102H104.938M62.9746 93.4102H66.4102M66.4102 93.4102V97.5127M66.4102 93.4102H73.7722M73.7722 93.4102V97.5127M73.7722 93.4102H81.6249M81.6249 93.4102V97.5127M81.6249 93.4102H89.4777M89.4777 93.4102V97.5127M89.4777 93.4102H97.3304M97.3304 93.4102V97.5127M97.3304 93.4102H104.938M104.938 93.4102V97.5127" stroke="black" stroke-width="2"/>
<path d="M83.0989 43.6667L72.7922 46.7436L63.9578 57L70.3382 65.718L76.2277 60.0769V87.7692H102.24V60.0769L108.62 66.2308L115.001 57L105.676 46.7436L95.8597 43.6667M83.0989 43.6667C88.2137 47.1971 90.9673 46.9731 95.8597 43.6667M83.0989 43.6667C82.9323 49.1273 83.5897 52.8974 88.9885 52.8974C94.3873 52.8974 95.2822 49.7291 95.8597 43.6667M48.2523 37H42.8535V117H48.2523M48.2523 37V117M48.2523 37H58.559V44.6923M48.2523 117H58.559V109.051M58.559 44.6923H54.1419M58.559 44.6923V52.8974M58.559 52.8974H54.1419M58.559 52.8974V61.1026M58.559 61.1026H54.1419M58.559 61.1026V68.7949M58.559 68.7949H54.1419M58.559 68.7949V77M58.559 77H54.1419M58.559 77V85.2051M58.559 85.2051H54.1419M58.559 85.2051V92.8974M58.559 92.8974H54.1419M58.559 92.8974V101.103M58.559 101.103H54.1419M58.559 101.103V109.051M58.559 109.051H54.1419" stroke="black" stroke-width="2"/>
<path d="M37.9448 109.308H35V104.179M37.9448 93.4102H35V104.179M35 104.179H37.9448" stroke="black" stroke-width="2"/>
<path d="M112.547 103.667H63.4668" stroke="black" stroke-width="2"/>
</svg>
