<svg width="61" height="54" viewBox="0 0 61 54" stroke="black" fill="black" xmlns="http://www.w3.org/2000/svg">
<path d="M1.68673 4H11.1867L17.686 32.501C16.6635 33.2737 16.123 33.7166 15.186 34.501C14.3706 35.3946 14.1613 36.0578 14.186 37.501C14.568 39.2314 14.7902 39.9398 15.186 40.501L15.1992 40.5169C16.3156 41.8664 17.153 42.346 19.0116 42.501H51.686C52.899 42.5432 53.1744 42.1642 53.186 41.001C53.2787 39.8844 52.9537 39.5213 51.686 39.501H19.186C18.0121 39.285 17.7161 38.816 17.686 37.501C17.7295 36.1712 18.1334 35.7894 19.262 35.501H51.686C52.2894 35.5279 52.4825 35.258 52.686 34.501L59.686 9.00098C59.9987 7.89935 59.7021 7.60844 58.6238 7.5L51 7.5C49.186 7.50098 49.186 11.001 51 11.001H56.4523L50.186 32.501H20.686L15.686 11.001L24.4215 11.0008C25.9215 11.0008 25.9215 7.50082 24.4215 7.50082L15.186 7.5C15.186 7.5 14.186 2.49902 14.186 2C14.186 1.50098 13.404 1.03181 12.6859 1H1.68673C0.800525 2.17074 0.742123 2.8276 1.68673 4Z"/>
<path fill-rule="evenodd" clip-rule="evenodd" d="M48 43.001C54 43.001 54.5 53.001 48 53.001C41.5 53.001 42 43.001 48 43.001ZM48 50.001C45.4566 50.015 45.4482 45.9925 48 46.001C50.5518 46.0095 50.5434 49.987 48 50.001Z" />
<path fill-rule="evenodd" clip-rule="evenodd" d="M23 53.001C29.5 53.001 30 43.001 23 43.001C16 43.001 16.5 53.001 23 53.001ZM23 50.001C25.5064 49.9865 25.5693 46.0154 23 46.001C20.4307 45.9866 20.4936 50.0154 23 50.001Z" />
<path fill-rule="evenodd" d="M15.186 40.501C15.1904 40.5063 15.1948 40.5116 15.1992 40.5169M15.186 40.501L15.1992 40.5169M15.186 40.501C14.7902 39.9398 14.568 39.2314 14.186 37.501C14.1613 36.0578 14.3706 35.3946 15.186 34.501C16.123 33.7166 16.6635 33.2737 17.686 32.501L11.1867 4H1.68673C0.742123 2.8276 0.800525 2.17074 1.68673 1H12.6859C13.404 1.03181 14.186 1.50098 14.186 2C14.186 2.49902 15.186 7.5 15.186 7.5L24.4215 7.50082C25.9215 7.50082 25.9215 11.0008 24.4215 11.0008L15.686 11.001L20.686 32.501H50.186L56.4523 11.001H51C49.186 11.001 49.186 7.50098 51 7.5L58.6238 7.5C59.7021 7.60844 59.9987 7.89935 59.686 9.00098L52.686 34.501C52.4825 35.258 52.2894 35.5279 51.686 35.501H19.262C18.1334 35.7894 17.7295 36.1712 17.686 37.501C17.7161 38.816 18.0121 39.285 19.186 39.501H51.686C52.9537 39.5213 53.2787 39.8844 53.186 41.001C53.1744 42.1642 52.899 42.5432 51.686 42.501H19.0116C17.153 42.346 16.3156 41.8664 15.1992 40.5169M23 50.001C25.5064 49.9865 25.5693 46.0154 23 46.001C20.4307 45.9866 20.4936 50.0154 23 50.001ZM23 43.001C30 43.001 29.5 53.001 23 53.001C16.5 53.001 16 43.001 23 43.001ZM48 50.001C45.4566 50.015 45.4482 45.9925 48 46.001C50.5518 46.0095 50.5434 49.987 48 50.001ZM48 43.001C54 43.001 54.5 53.001 48 53.001C41.5 53.001 42 43.001 48 43.001Z" />
</svg>
