<svg viewBox="0 0 53 45" fill="none" xmlns="http://www.w3.org/2000/svg">
<path d="M3.70063 2.02454C5.87302 2.07605 12.2006 2.02454 12.2006 2.02454L13.4898 7.61101M3.70063 2.02454C1.52825 1.97303 1.72471 2.01751 2.69868 2.02454H3.70063ZM18.2006 28.0245H44.7006L50.2006 8.02454L13.4898 7.61101M18.2006 28.0245L13.4898 7.61101M18.2006 28.0245C14.2006 28.5245 14.2006 34.5245 18.2006 34.5245C21.9322 34.5245 41.7643 34.5245 44.4091 34.5245M44.4091 34.5245C44.5993 34.5245 44.7006 34.5245 44.7006 34.5245C46.1846 34.542 46.3464 34.5412 45.6777 34.5244L44.4091 34.5245ZM41.7006 43.0245C37.5526 43.0245 37.2006 37.0245 41.7006 37.0245C46.2006 37.0245 45.8485 43.0245 41.7006 43.0245ZM21.2006 43.0245C25.3486 43.0245 25.7006 37.0245 21.2006 37.0245C16.7006 37.0245 17.0527 43.0245 21.2006 43.0245Z" stroke="black" stroke-width="3"/>
</svg>
