<svg width="20" stroke="black" height="15" viewBox="0 0 20 15" fill="none" xmlns="http://www.w3.org/2000/svg">
<path d="M1.50883 7.59825C0.855123 7.59819 0.806101 6.68788 1.50883 6.68803L15.8551 6.59819H16.3551H17.1596C17.1596 6.59819 12.1477 1.88616 11.8551 1.59819C11.5625 1.31021 12.0371 0.780622 12.3551 1.09819C12.6731 1.41575 18.3551 6.59819 18.3551 6.59819C18.7398 6.97169 18.7435 7.19052 18.3551 7.59819C18.3551 7.59819 12.942 13.0054 12.5 13.4524C12.058 13.8994 11.5604 13.3899 12 12.9524C12.4396 12.5149 17.1596 7.5 17.1596 7.5L15.8551 7.59825H1.50883Z"/>
<path d="M15.8551 7.59825C15.8288 7.59825 2.1619 7.5983 1.50883 7.59825M15.8551 7.59825L17.1596 7.5C17.1596 7.5 12.4396 12.5149 12 12.9524C11.5604 13.3899 12.058 13.8994 12.5 13.4524C12.942 13.0054 18.3551 7.59819 18.3551 7.59819C18.7435 7.19052 18.7398 6.97169 18.3551 6.59819C18.3551 6.59819 12.6731 1.41575 12.3551 1.09819C12.0371 0.780622 11.5625 1.31021 11.8551 1.59819C12.1477 1.88616 17.1596 6.59819 17.1596 6.59819H16.3551H15.8551L1.50883 6.68803C0.806101 6.68788 0.855123 7.59819 1.50883 7.59825M15.8551 7.59825H1.50883" />
</svg>
