<svg width="61" height="57" viewBox="0 0 61 57" stroke="black" fill="black" xmlns="http://www.w3.org/2000/svg">
<path d="M38.6808 49.895C41.1808 47.895 37.5937 44.8949 36.0937 46.395C34.5937 47.8952 32.0937 49.895 32.0937 49.895C30.7376 50.8351 29.5944 50.895 28.5944 50.395C27.5944 49.8951 18.1808 40.5368 18.1808 40.5368C14.5566 36.3012 11.9776 33.7473 8.59437 29.395C6.43375 26.6822 6.03822 25.0244 5.18079 21.5368C4.92348 19.3942 4.89791 18.2837 5.18079 16.5368C5.80043 13.694 6.24772 12.4069 7.18079 10.5368C9.1789 7.47093 10.2125 6.17941 14.0944 5.39496H17.0944C20.6361 5.68743 22.5955 6.79062 26.0944 10.895C26.8273 11.862 27.1812 12.4127 27.5944 13.395L27.5996 13.4071C27.7303 13.7098 27.8056 13.8843 28.0944 14.895C29.6423 16.5225 30.4932 16.5511 32.0944 14.895C32.7271 13.2172 33.0529 12.2056 34.0944 10.895C36.5341 7.85392 38.2702 6.65271 42.0944 5.39496C43.9176 4.9851 45.0335 4.99126 47.0944 5.39496C51.1492 6.38965 52.8039 7.73694 54.5944 11.895C55.9945 15.0848 56.296 17.172 55.0944 21.395L53.0944 26.895C51.5944 29.895 55.5944 30.895 56.5944 28.895C57.5944 26.895 60.0978 21.2988 60.0944 16.895C59.5815 9.79992 58.2156 6.99333 54.0944 3.89446C48.4685 0.584372 40.2623 -0.078233 35.5944 3.39446C30.9264 6.86715 31.9171 6.751 30.0944 8.89446C28.2804 6.21873 26.9677 4.91927 24.0944 2.89502C18.7463 -0.63695 8.62442 1.0679 5.18115 5.53621C1.73788 10.0045 2.42038 9.86518 1.18095 15.0362C0.71516 21.8522 0.920162 25.3838 4.59368 31.895C11.8671 41.1804 16.4427 46.0391 25.5937 53.895C28.5937 56.395 32.0937 55.895 34.5937 53.895C37.0937 51.895 38.6808 49.895 38.6808 49.895Z" />
<path d="M27.5944 13.395C27.1812 12.4127 26.8273 11.862 26.0944 10.895C22.5955 6.79062 20.6361 5.68743 17.0944 5.39496H14.0944C10.2125 6.17941 9.1789 7.47093 7.18079 10.5368C6.24772 12.4069 5.80043 13.694 5.18079 16.5368C4.89791 18.2837 4.92348 19.3942 5.18079 21.5368C6.03822 25.0244 6.43375 26.6822 8.59437 29.395C11.9776 33.7473 14.5566 36.3012 18.1808 40.5368C18.1808 40.5368 27.5944 49.8951 28.5944 50.395C29.5944 50.895 30.7376 50.8351 32.0937 49.895C32.0937 49.895 34.5937 47.8952 36.0937 46.395C37.5937 44.8949 41.1808 47.895 38.6808 49.895C38.6808 49.895 37.0937 51.895 34.5937 53.895C32.0937 55.895 28.5937 56.395 25.5937 53.895C16.4427 46.0391 11.8671 41.1804 4.59368 31.895C0.920162 25.3838 0.71516 21.8522 1.18095 15.0362C2.42038 9.86518 1.73788 10.0045 5.18115 5.53621C8.62442 1.0679 18.7463 -0.63695 24.0944 2.89502C26.9677 4.91927 28.2804 6.21873 30.0944 8.89446C31.9171 6.751 30.9264 6.86715 35.5944 3.39446C40.2623 -0.078233 48.4685 0.584372 54.0944 3.89446C58.2156 6.99333 59.5815 9.79991 60.0944 16.895C60.0978 21.2988 57.5944 26.895 56.5944 28.895C55.5944 30.895 51.5944 29.895 53.0944 26.895L55.0944 21.395C56.296 17.172 55.9945 15.0848 54.5944 11.895C52.8039 7.73694 51.1492 6.38965 47.0944 5.39496C45.0335 4.99126 43.9176 4.9851 42.0944 5.39496C38.2702 6.65271 36.5341 7.85392 34.0944 10.895C33.0529 12.2056 32.7271 13.2172 32.0944 14.895C30.4932 16.5511 29.6423 16.5225 28.0944 14.895C27.8056 13.8843 27.7303 13.7098 27.5996 13.4071M27.5944 13.395L27.5996 13.4071M27.5944 13.395C27.5961 13.399 27.5979 13.4031 27.5996 13.4071" />
</svg>
