<svg width="52" height="52" viewBox="0 0 52 52" fill="#000000" stroke="#000000" xmlns="http://www.w3.org/2000/svg">
<path d="M12.5385 39.1722V12.6883L1.64103 23.7273L1 25.026V26.974L1.64103 28.2727L12.5385 39.961V39.1722Z"/>
<path d="M50.359 23.7273L49.718 23.078L35.6154 8.79224L18.9487 25.6754L36.2564 42.5585L49.718 28.9221L50.359 28.2728L51 26.9741V25.026L50.359 23.7273Z" />
<path d="M15.7437 26.974L33.6924 45.1558L28.5642 50.3506L27.2821 51H26.6411H25.359H24.718L23.436 50.3506L15.7437 42.5584V26.974Z" />
<path d="M15.7437 27.6234V24.3766M15.7437 24.3766V9.44156L23.436 1.64935L24.718 1H26.0001H27.2821L28.5642 1.64935L33.6924 6.84416L15.7437 24.3766Z"/>
</svg>
