<svg width="26" height="26" viewBox="0 0 26 26" fill="none" xmlns="http://www.w3.org/2000/svg">
<path d="M7 25H2C1.17638 24.9902 1.01427 24.7114 1 24V19M7 25C7.77589 24.964 8.00915 24.718 8 24M7 25H13.5M8 24V23M8 24L13.3714 20.7079M1 6.5V2C1.07858 1.29944 1.2288 1.01175 2 1H7C7.69521 1.04162 7.93451 1.21053 8 2V6.5M1 6.5H8M1 6.5V13M8 6.5V7.5M8 13H1M8 13V7.5M8 13V13.5M1 13V19M1 19H8M8 19V23M8 19V13.5M8 23L11.7956 16.2079M8 7.5L8.6 6.5M8.6 6.5L11 2.5C11.3052 1.71692 11.5935 1.54941 12.5 2L17 4.5C17.6638 4.90526 17.8248 5.227 17.5 6L15.1935 10.1274M8.6 6.5L15.1935 10.1274M15.1935 10.1274L14.7901 10.8493M12.1068 15.651L8 13.5M12.1068 15.651L14.7901 10.8493M12.1068 15.651L11.7956 16.2079M14.7901 10.8493L15.6758 10.3135M14.2529 20.1676L11.7956 16.2079M14.2529 20.1676L18.1434 17.7831M14.2529 20.1676L13.3714 20.7079M15.6758 10.3135L19.5 8C20.142 7.61848 20.5195 7.66903 21 8.5L24 13C24.3771 13.6615 24.2102 13.9818 23.5 14.5L19.6874 16.8367M15.6758 10.3135L19.6874 16.8367M19.6874 16.8367L18.1434 17.7831M18.1434 17.7831H19.6874M13.5 25H24.5C25.4108 24.9484 25.5517 24.6904 25.5 24V19C25.4688 17.981 25.1712 17.8271 24.5 17.7831H19.6874M13.5 25L13.3714 20.7079M19.6874 17.7831V25.1567M4.5 21C6 21 6 23 4.5 23C3 23 3 21 4.5 21Z" stroke="black"/>
</svg>
