<svg width="31" height="21" viewBox="0 0 31 21" fill="none" xmlns="http://www.w3.org/2000/svg">
<path d="M20.5713 19.6429C20.5713 19.0968 20.5717 15.1597 20.5719 11.0718H19.4291C19.4288 15.1597 19.4285 19.0968 19.4285 19.6429C19.4285 20.7857 20.5713 20.7857 20.5713 19.6429Z" fill="black"/>
<path d="M20.572 9.92904C20.1915 9.92904 19.8097 9.92903 19.4291 9.92903C19.4291 10.3095 19.4291 10.6913 19.4291 11.0718H20.5719C20.5719 10.6913 20.572 10.3095 20.572 9.92904Z" fill="black"/>
<path d="M20.572 1.35748C20.5713 0.21411 19.4285 0.214238 19.4292 1.35748C19.4295 1.90369 19.4294 5.84099 19.4291 9.92903L20.572 9.92904C20.5722 5.84103 20.5724 1.90375 20.572 1.35748Z" fill="black"/>
<path d="M10.8578 9.92891C9.71396 9.92891 9.71414 11.0718 10.8578 11.0718H19.4291L19.4291 9.92903L10.8578 9.92891Z" fill="black"/>
<path d="M29.1434 11.0718C30.2855 11.0718 30.2855 9.92857 29.1434 9.92891C28.5977 9.92907 24.6603 9.92907 20.572 9.92904L20.5719 11.0718H29.1434Z" fill="black"/>
<path d="M10.8578 9.92891C9.71396 9.92891 9.71414 11.0718 10.8578 11.0718M10.8578 9.92891C11.4043 9.92891 15.3413 9.92898 19.4291 9.92903M10.8578 9.92891L19.4291 9.92903M29.1434 11.0718C30.2855 11.0718 30.2855 9.92857 29.1434 9.92891C28.5977 9.92907 24.6603 9.92907 20.572 9.92904M29.1434 11.0718C28.5977 11.0718 24.6602 11.0718 20.5719 11.0718M29.1434 11.0718H20.5719M10.8578 11.0718C11.4042 11.0718 15.3413 11.0718 19.4291 11.0718M10.8578 11.0718H19.4291M20.5719 11.0718C20.5717 15.1597 20.5713 19.0968 20.5713 19.6429C20.5713 20.7857 19.4285 20.7857 19.4285 19.6429C19.4285 19.0968 19.4288 15.1597 19.4291 11.0718M20.5719 11.0718H19.4291M20.5719 11.0718C20.1914 11.0718 19.8096 11.0718 19.4291 11.0718M20.5719 11.0718C20.5719 10.6913 20.572 10.3095 20.572 9.92904M20.5719 11.0718L20.572 9.92904M19.4291 11.0718C19.4291 10.6913 19.4291 10.3095 19.4291 9.92903M19.4291 11.0718L19.4291 9.92903M20.572 9.92904C20.1915 9.92904 19.8097 9.92903 19.4291 9.92903M20.572 9.92904C20.5722 5.84103 20.5724 1.90375 20.572 1.35748C20.5713 0.21411 19.4285 0.214238 19.4292 1.35748C19.4295 1.90369 19.4294 5.84099 19.4291 9.92903M20.572 9.92904L19.4291 9.92903" stroke="black"/>
</svg>
