<svg viewBox="0 0 22 22" fill="none" xmlns="http://www.w3.org/2000/svg">
<path d="M1.0151 21H10.9046M10.9046 21H20.7941V11.7003C20.8588 11.0729 20.6708 11.0099 20.2719 10.9799H17.5629M10.9046 21H0.819264V11.7003C0.768372 11.202 0.853554 11.01 1.40676 10.9799H4.01785M10.9046 21L10.8393 10.9799M10.8393 10.9799H7.57547M10.8393 10.9799H14.1032M7.57547 10.9799V14.9748H4.21369V10.9799M7.57547 10.9799H4.21369M4.21369 10.9799H4.01785M4.80118 17.8237H6.9227M14.7886 17.8237H16.8122M17.5629 10.9799V14.9748H14.1032V10.9799M17.5629 10.9799H14.1032M14.1032 10.9799V1.77843C14.0717 1.12318 13.8794 1.038 13.4504 1.02529H10.8393M9.9581 7.83634H8.03241M10.8393 1.02529V4.95474H7.31436V1.02529M10.8393 1.02529H7.31436M4.01785 10.9799V1.77843C3.99334 1.1312 4.10052 0.921347 4.67063 1.02529H7.31436" stroke="black"/>
</svg>
